<svg width="3415" height="3414" viewBox="0 0 3415 3414" fill="none" xmlns="http://www.w3.org/2000/svg">
<path d="M3414.24 201.779L3412 3213.78C3411.92 3324.23 3322.31 3413.71 3211.85 3413.63L2980.85 3413.46C2870.39 3413.37 2780.92 3323.77 2781 3213.31L2781.29 2823.31C2781.37 2712.85 2691.9 2623.24 2581.44 2623.16L2152.44 2622.84C2041.98 2622.76 1952.37 2712.23 1952.29 2822.69L1952 3212.69C1951.92 3323.15 1862.31 3412.62 1751.85 3412.54L199.851 3411.39C89.3943 3411.31 -0.0820582 3321.7 0.000125966 3211.24L2.24071 199.851C2.32308 89.1557 92.305 -0.418739 203 0.00126853L472.379 1.02299C582.539 1.44089 671.62 90.8607 671.62 201.022L671.62 466.009C671.62 576.466 761.163 666.009 871.62 666.009L1088.62 666.009C1199.08 666.009 1288.62 576.466 1288.62 466.009L1288.62 201.616C1288.62 91.2229 1378.06 1.70613 1488.46 1.61639L2303.89 0.952595L3214.39 1.63004C3324.85 1.71223 3414.32 91.3218 3414.24 201.779Z" fill="white"/>
</svg>
