<?xml version="1.0" encoding="utf-8"?>
<svg xmlns="http://www.w3.org/2000/svg" version="1.1" x="0px" y="0px" viewBox="64.83235 -78.41929999999999 62.3623 76.53555" enable-background="new 67.667 -72.75 56.693 56.693">
  <g>
    <g>
      <path d="M88.476-36.552c-1.68,0-3.093-1.1-3.288-2.558l1.501-0.202c0.095,0.697,0.879,1.243,1.787,1.243     c0.905,0,1.689-0.546,1.784-1.243l1.503,0.202C91.567-37.652,90.154-36.552,88.476-36.552z M106.701-39.11l-1.504-0.202     c-0.093,0.697-0.878,1.243-1.783,1.243c-0.907,0-1.693-0.545-1.786-1.243l-1.504,0.202c0.197,1.458,1.61,2.558,3.29,2.558     C105.092-36.552,106.504-37.652,106.701-39.11z M118.592-32.531v-0.776c0-3.659-2.296-6.917-5.624-8.211     c0.407-0.899,0.618-1.877,0.618-2.884v-0.598c0-3.845-3.109-6.978-6.946-7.016c-0.049-3.139-2.56-5.882-6.507-7.193     c0.603-2.817,0.723-4.738,0.355-5.718c-0.387-1.03-1.137-1.142-1.441-1.142c-0.989,0-1.705,0.98-2.61,2.223     c-0.335,0.459-0.682,0.935-1.013,1.313c-0.397,0.453-2.456,1.788-6.955,4.058l-0.125,0.063l-0.081,0.044     c-2.887,1.529-4.541,3.877-4.541,6.446c0,0.012,0,0.024,0,0.036c-3.25,0.628-5.661,3.465-5.661,6.886v0.598     c0,1.007,0.211,1.984,0.619,2.884c-3.329,1.294-5.625,4.551-5.625,8.21v0.777c0,4.854,3.95,8.804,8.805,8.804h27.929     C114.642-23.727,118.592-27.676,118.592-32.531z M89.413-56.606c4.285-2.162,6.838-3.692,7.586-4.548     c0.393-0.448,0.768-0.962,1.13-1.459c0.142-0.194,0.311-0.427,0.479-0.647c-0.027,0.938-0.241,2.473-0.729,4.539l-0.234,0.997     l0.992,0.256c3.536,0.911,5.912,3.141,5.912,5.547c0,0.239-0.026,0.491-0.078,0.746l-0.252,1.253h2.351     c2.715,0,4.924,2.208,4.924,4.923v0.598c0,1.046-0.325,2.045-0.938,2.891l-0.949,1.305l1.579,0.334     c3.079,0.651,5.314,3.412,5.314,6.564v0.777c0,3.7-3.011,6.711-6.711,6.711H81.859c-3.701,0-6.712-3.011-6.712-6.711v-0.777     c0-3.152,2.235-5.913,5.315-6.564l1.578-0.334l-0.948-1.305c-0.614-0.846-0.939-1.845-0.939-2.891v-0.598     c0-2.666,2.087-4.826,4.75-4.919l1.234-0.042l-0.245-1.211c-0.052-0.257-0.078-0.509-0.078-0.75c0-1.78,1.265-3.465,3.47-4.62     l0.028-0.015L89.413-56.606z M90.471-32.283c-0.201-0.436-0.438-0.857-0.694-1.263c-0.376-0.593-0.781-1.165-1.177-1.746     c-0.071-0.105-0.141-0.163-0.209-0.173c-0.068,0.01-0.137,0.068-0.21,0.173c-0.395,0.581-0.8,1.153-1.176,1.746     c-0.255,0.406-0.492,0.827-0.694,1.263c-0.241,0.522-0.299,1.077-0.114,1.638c0.316,0.958,1.202,1.566,2.194,1.567     c0.994-0.001,1.879-0.609,2.194-1.567C90.771-31.206,90.714-31.76,90.471-32.283z M89.476-31.009     c-0.153,0.463-0.578,0.763-1.083,0.764c-0.508-0.001-0.934-0.3-1.087-0.764c-0.084-0.256-0.063-0.505,0.067-0.783     c0.166-0.361,0.368-0.729,0.62-1.127c0.129-0.205,0.263-0.406,0.397-0.606c0.136,0.2,0.268,0.402,0.397,0.605     c0.253,0.399,0.457,0.767,0.622,1.129C89.54-31.514,89.561-31.265,89.476-31.009z M97.206-31.07     c-0.162-1.197-0.77-1.912-1.267-1.912c-0.495,0-1.104,0.715-1.266,1.912l-1.555-0.209c0.259-1.926,1.42-3.272,2.82-3.272     c1.401,0,2.562,1.346,2.821,3.272L97.206-31.07z"/>
    </g>
  </g>
</svg>