<svg width="337" height="313" viewBox="0 0 337 313" fill="none" xmlns="http://www.w3.org/2000/svg">
<path d="M172.516 11.8496C176.73 4.51924 184.54 0 192.995 0C211.198 0 222.56 19.7241 213.426 35.4706L59.6844 300.532C55.567 307.631 47.9815 312 39.7753 312C22.0776 312 11.0017 292.859 19.8208 277.515L172.516 11.8496Z" fill="white"/>
<path d="M47.489 125C29.9499 125 18.9966 106.003 27.7835 90.8241L73.2376 12.3021C77.2868 5.30709 84.7568 1 92.8392 1C110.259 1 121.158 19.8445 112.471 34.9437L67.2247 113.586C63.1619 120.647 55.6359 125 47.489 125Z" fill="white"/>
<path d="M277.863 11.3215C281.939 4.3123 289.435 0 297.544 0C315.075 0 326.028 18.9824 317.255 34.1604L163.352 300.422C159.21 307.587 151.563 312 143.287 312C125.414 312 114.268 292.624 123.253 277.174L277.863 11.3215Z" fill="white"/>
<path d="M268.205 198.513C272.325 191.388 279.931 187 288.161 187C305.887 187 316.981 206.172 308.148 221.54L262.264 301.373C258.13 308.566 250.468 313 242.172 313C224.325 313 213.176 293.674 222.11 278.224L268.205 198.513Z" fill="white"/>
</svg>
